# xmcd
#
# Track frame offsets: 
#        183
#        21435
#        38758
#        57073
#        72078
#        90535
#        114678
#        135420
#        158168
#        175625
#
# Disc length: 2608 seconds
#
# Revision: 3
# Processed by: cddbd v1.5.2PL0 Copyright (c) Steve Scherf et al.
# Submitted via: ExactAudioCopy v0.95b4
#
DISCID=780a2e0a
DTITLE=BeBe and CeCe Winans - BeBe and CeCe Winans
DYEAR=1987
DGENRE=Gospel
TTITLE0=I.O.U. Me
TTITLE1=I Don't Know Why
TTITLE2=For Always
TTITLE3=No Hiding Place
TTITLE4=Still in Love with You
TTITLE5=Call Me
TTITLE6=Love Said Not So
TTITLE7=Change Your Nature
TTITLE8=In Return
TTITLE9=He's Coming Soon
EXTD=
EXTT0=
EXTT1=
EXTT2=
EXTT3=
EXTT4=
EXTT5=
EXTT6=
EXTT7=
EXTT8=
EXTT9=
PLAYORDER=
